<?xml version="1.0" encoding="UTF-8"?>
<svg xmlns="http://www.w3.org/2000/svg" version="1.1" viewBox="0 0 600 165">
  <defs>
    <style>
      .cls-1 {
        display: none;
        fill: #a51c30;
      }

      .cls-2 {
        fill: #faebd7;
      }
    </style>
  </defs>
  <!-- Generator: Adobe Illustrator 28.7.1, SVG Export Plug-In . SVG Version: 1.2.0 Build 142)  -->
  <g>
    <g id="Layer_1">
      <path class="cls-2" d="M244.3,110.2c0-1.2-.8-2.1-2.5-2.5v-.8c.8,0,3.9.2,4.8.2s3.7-.2,4.6-.2v.8c-1.4.4-2.3,1.2-2.3,2.5v15.5c0,5,2.7,7.7,8.3,7.7s8.7-2.3,8.7-7.5v-15.9c0-1.2-.8-2.1-2.5-2.5v-.6c.6,0,3.1.2,3.9.2s3.3-.2,3.9-.2v.8c-1.9.4-2.5,1.2-2.5,2.5v15.1c0,6.8-3.9,10.8-12.4,10.8s-12-3.5-12-9.9v-15.9ZM278.3,134.9c1.9-.4,2.5-1.2,2.5-2.5v-21.5c0-1.9-1-2.7-2.7-3.1v-.8h6l18.6,21.9v-18.6c0-1.2-.8-2.1-2.5-2.5v-.8c.6,0,3.1.2,3.9.2s3.3-.2,3.9-.2v.8c-1.9.4-2.7,1.2-2.7,2.5v25.9h-1c-.6-.2-2.1-.8-4.1-3.1l-16.8-19.5v19c0,1.2.6,2.1,2.5,2.5v.8c-.6,0-3.1-.2-3.9-.2s-3.3.2-3.9.2l.2-1ZM425.6,129.1h.8c.4,1.7,1.2,3.1,2.7,3.9,1.2,1,3.5,1.4,5.2,1.4,3.7,0,6.2-1.9,6.2-4.8s-3.1-4.6-6.6-6.4c-2.7-1.4-8.1-3.5-8.1-8.7s3.7-7.9,9.5-7.9,5.6,1,8.3.8v5.8h-.8c-1-3.5-4.1-4.6-7.7-4.6s-5.2,2.3-5.2,4.3c0,3.1,3.1,4.8,6.6,6.4,3.9,1.7,8.3,3.9,8.3,8.9s-3.7,8.1-10.4,8.1-6.4-1.2-8.5-1.4l-.4-6ZM505.8,123.7l-7.7-12.2c-1.2-2.1-2.3-3.3-3.7-3.7v-.8c1,0,3.9.2,4.6.2s3.7-.2,5-.2v.8c-1,.2-1.4.6-1.4,1.4s.4,1.4.8,2.3c.4.6,5.6,9.3,5.6,9.3l5.4-9.3c.6-1,.8-1.9.8-2.5s-.4-1-1.2-1v-1c.8,0,2.9.2,3.5.2s2.9-.2,3.7-.2v.8c-2.1.8-3.3,2.7-4.6,4.8l-6.8,11.6M510.1,122.7v9.7c0,1,.8,2.3,2.5,2.5v.8c-.8,0-3.9-.2-4.8-.2s-3.7.2-4.8.2v-.8c1.7-.4,2.5-1.4,2.5-2.5v-9.3M364.6,106.9h17.8c.6,0,1.4,0,2.1-.4h.8l-.2,5.8h-.8c-.6-1.9-1.4-3.3-4.8-3.3h-7.7v10.3h6c.8,0,1.9,0,2.3-.2,1.2-.2,1.9-1,2.3-2.3h.8v7.2h-.8c-.4-1.2-.8-2.1-2.3-2.3-.4-.2-1.4-.2-2.3-.2h-6v11.8h8.5c3.7,0,4.8-1.4,5.6-3.7h.8l-.8,6c-2.7-.2-4.3-.2-7.5-.2h-8.9c-.8,0-3.9.2-5,.2v-.8c1.7-.4,2.5-1,2.5-2.7v-21.9c0-1.4-.8-2.3-2.5-2.5v-.8ZM319,110.4c0-1.4-.8-2.3-2.5-2.7v-.8c1,0,3.9.2,5,.2s3.9-.2,5-.2v.8c-1.7.4-2.7,1-2.7,2.7v21.7c0,1.4.8,2.3,2.7,2.7v.8c-1,0-3.9-.2-5-.2s-3.9.2-5,.2v-.8c1.9-.4,2.7-1,2.7-2.7l-.2-21.7ZM454.2,110.4c0-1.4-.8-2.3-2.5-2.7v-.8c1,0,4.1.2,5,.2s3.9-.2,5-.2v.8c-1.7.4-2.5,1-2.5,2.7v21.7c0,1.4.8,2.3,2.5,2.7v.8c-1,0-3.9-.2-5-.2s-3.9.2-5,.2v-.8c1.9-.4,2.5-1,2.5-2.7v-21.7ZM479.1,107.1c-9.7,0-11.4-.2-13.2-.4v5.8h.8c.8-2.7,2.3-3.3,4.1-3.3h6.2v22.8c0,1.4-.8,2.3-2.7,2.7v.8c1,0,4.1-.2,5-.2s3.9.2,5,.2v-.8c-1.7-.4-2.7-1.2-2.7-2.7v-22.8h6c1.9,0,3.3.6,4.1,3.3h.8v-5.8c-2.3.2-3.7.4-13.5.4h0ZM401,132.2c0,1.4.8,2.3,2.7,2.7v.8c-1,0-4.1-.2-5-.2s-3.7.2-4.8.2v-.8c1.7-.4,2.5-1,2.5-2.7v-21.9c0-1.4-.8-2.3-2.5-2.5v-.8c1,0,3.9.2,4.8.2,1.4,0,5.4-.2,7-.2,6.8,0,10.6,2.9,10.6,7.7s-2.9,6.4-7.2,7.5c0,0,1,.6,2.1,1.7,1.2,1.4,4.6,6,5.8,7.7s3.1,3.5,5,3.5v.6c-.8.2-2.3.4-3.3.4-2.3,0-4.1-.8-6-2.9-1.7-1.9-4.1-5.8-5.8-7.9-1-1.2-2.3-2.3-4.3-2.7-.4,0-.8-.2-1.2-.2l-.2,9.9ZM401,120.6c.8.2,2.3.2,3.5.2,5.4,0,7-3.1,7-5.8,0-3.9-2.5-6.2-7.2-6.2s-2.3.2-3.3.4v11.4ZM333.1,110.4c-.6-1.4-1.7-2.5-3.3-2.7v-.8c1,0,4.6.2,5.4.2s3.7-.2,4.8-.2v.8c-.8.2-2.1.6-2.1,1.7s.4,1.7,1.2,3.3l7.5,16.8,7-16.8c.6-1.4,1-2.5,1-3.1s-.8-1.4-2.1-1.7v-1c.8,0,3.1.2,3.9.2s3.3-.2,4.3-.2v.8c-1.7.4-2.9,1.4-3.7,3.7l-10.4,24.2h-2.3l-11.4-25.3ZM359.6,34.1c-1.2-2.7-3.1-4.6-6-5.2v-1.4c1.9,0,8.3.2,9.7.2s7.5-.2,9.5-.2v1.4c-1.7.4-3.7,1.2-3.7,3.1s.8,3.1,2.3,6.2l14.1,31.9,13.2-31.9c1-2.5,1.9-4.6,1.9-6s-1.7-2.9-3.7-3.3v-1.4c1.9,0,6,.2,7.5.2s6.2-.2,8.3-.2v1.4c-3.3.8-5.4,2.9-7.2,7l-19.5,46h-4.3l-21.9-47.8ZM171.3,80c2.5-.6,4.3-1.7,4.3-4.6v-42c0-2.7-1.7-3.9-4.3-4.6v-1.7c1.2,0,7,.2,8.5.2s7.7-.2,8.9-.2v1.4c-2.5.6-4.3,1.7-4.3,4.6v17.8h31.5v-17.6c0-2.9-1.7-4.1-4.3-4.6v-1.7c1.2,0,7.2.2,8.9.2s7.2-.2,8.7-.2v1.4c-2.5.6-4.3,1.7-4.3,4.6v42c0,2.7,1.7,3.9,4.3,4.6v1.4c-1.2,0-7.2-.2-8.7-.2s-7.5.2-8.9.2v-1.2c2.5-.6,4.3-1.7,4.3-4.6v-19.9h-31.5v19.9c0,2.9,1.7,3.9,4.3,4.6v1.4c-1.2,0-7.5-.2-8.9-.2s-7,.2-8.5.2v-1.4ZM533.9,80c3.3-.6,5-1.9,5-4.8v-41.8c0-2.9-1.9-4.1-5-4.6v-1.7c1.9,0,7.7.2,9.3.2,2.7,0,9.9-.6,15.7-.6,19.3,0,31,10.8,31,27.1s-12.2,27.7-32.1,27.7-12.4-.4-15.1-.4-7,.2-8.9.2v-1.4ZM547.6,77.3c2.1.4,5.6.6,8.5.6,16.1,0,24.6-9.7,24.6-23.4s-8.9-24-24-24-7,.2-9.1.6v46.2ZM315.5,75c0,2.7,1.9,4.3,5,5v1.4c-1.9,0-7.7-.2-9.5-.2s-7.2.2-9.1.2v-1.4c3.1-.6,4.8-2.1,4.8-5v-41.4c0-2.5-1.4-4.1-4.8-4.8v-1.7c1.9,0,7.5.2,9.1.2,2.7,0,10.1-.4,13.2-.4,13,0,20.3,5.4,20.3,14.5s-5.4,12-13.7,14.1c0,0,1.9,1,3.7,3.3,2.3,2.7,8.7,11.8,11.2,14.9,2.5,3.1,5.8,6.6,9.3,6.6v1.2c-1.7.4-4.3.6-6.4.6-4.3,0-7.9-1.7-11.4-5.8-2.9-3.5-8.1-11.2-11-14.9-1.9-2.5-4.1-4.3-8.3-5-.8-.2-1.7-.2-2.5-.4v18.8ZM315.5,53.1c1.7.2,4.3.4,6.8.4,10.1,0,13.2-5.8,13.2-11s-5-11.8-13.7-11.8-4.6.2-6.4.6v21.7ZM486.5,75c0,2.7,1.9,4.3,5,5v1.4c-1.9,0-7.7-.2-9.3-.2s-7.2.2-9.1.2v-1.4c3.1-.6,4.8-2.1,4.8-5v-41.4c0-2.5-1.4-4.1-4.8-4.8v-1.7c1.9,0,7.5.2,9.1.2,2.7,0,10.1-.4,13-.4,13,0,20.3,5.4,20.3,14.5s-5.4,12-13.7,14.1c0,0,1.9,1,3.7,3.3,2.3,2.7,8.7,11.8,11.2,14.9,2.5,3.1,5.8,6.6,9.3,6.6v1.2c-1.7.4-4.3.6-6.4.6-4.3,0-7.9-1.7-11.4-5.8-2.9-3.5-8.1-11.2-11-14.9-1.9-2.5-4.1-4.3-8.3-5-.8-.2-1.7-.2-2.5-.4v18.8ZM486.5,53.1c1.7.2,4.3.4,6.8.4,10.1,0,13.2-5.8,13.2-11s-5-11.8-13.7-11.8-4.6.2-6.4.6v21.7ZM236.9,80c3.5-.8,5.4-3.1,6.6-6l17.4-41.8c.8-1.7,1.7-5.2,1.7-5.2h5s.8,3.5,1.7,5.4l18.4,41.8c1.2,2.9,2.7,5,6.4,5.8v1.4c-2.1,0-8.1-.2-9.5-.2s-7.2.2-9.3.2v-1.4c2.7-.6,3.5-2.1,3.5-3.3s-.4-2.5-1-3.7l-3.9-8.9h-20.3l-3.5,9.1c-.4,1-.8,2.5-.8,3.5s.8,2.7,3.7,3.5v1.4c-1.9,0-6.6-.2-7.7-.2l-7.9.2-.4-1.7ZM271.4,59.7l-8.7-20.1-8.1,20.1h16.8ZM409.1,80c3.5-.8,5.4-3.1,6.6-6l17.4-41.8c.8-1.7,1.7-5.2,1.7-5.2h5s.8,3.5,1.7,5.4l18.4,41.8c1.2,2.9,2.7,5,6.4,5.8v1.4c-2.1,0-8.1-.2-9.5-.2s-7.2.2-9.3.2v-1.4c2.7-.6,3.5-2.1,3.5-3.3s-.4-2.5-1-3.7l-3.9-8.9h-20.3l-3.5,9.1c-.4,1-.8,2.5-.8,3.5s.8,2.7,3.7,3.5v1.4c-1.9,0-6.6-.2-7.7-.2l-7.9.2v-1.7h-.4ZM443.5,59.7l-8.7-20.1-8.1,20.1h16.8Z"/>
      <path class="cls-1" d="M10.8,10.5h121.1v45.7c0,20.9-7.9,65.4-60,98.5,0,0-56.7-23.6-61.1-98.5V10.5Z"/>
      <path class="cls-2" d="M71.7,155.4l-.4-.2c-.4-.2-56.9-24.6-61.3-98.9V9.6h122.5v46.4c0,18.2-5.8,64.6-60.4,98.9l-.4.4ZM11.4,11.1v44.9c4.1,70.4,55.5,95.6,60.2,97.7,53.6-34.2,59.4-79.7,59.4-97.7V11.1H11.4Z"/>
      <path class="cls-2" d="M43.1,70.7c.9-.5,1.1-1.3,1.1-1.3h.3c.2,0,.5,0,1.1.1.5,0,1.2,0,2,0,1.6,0,3.6,0,5.5,0,2,0,3.9,0,5.4,0,1.5,0,2.5,0,2.6,0h0c.7.2,1.2.1,1.6,0,.4-.2.7-.4.9-.7.4-.6.4-1.2.4-1.2h0s.2-4.9.2-4.9c0-.3.4-.6.8-.7.4-.1.7-.2.7-.2,2.3.3,3.4-.5,3.9-1.4.5-.9.4-1.9.4-1.9h0c-.1-1.5-1-2.3-1.8-2.6-.8-.3-1.6-.3-1.6-.3h0c-1.1,0-1.6-.4-1.9-.8-.3-.4-.3-.7-.3-.7h0c0-.4,0-1.3.1-2.5,0-1.2,0-2.7,0-4.2,0-3,0-5.7,0-5.7,0-.3.1-.7.3-1,.1-.3.2-.5.3-.5,1.3.1,2.2,0,2.9-.2.7-.3,1.2-.7,1.4-1.1.5-.9.3-1.8.3-1.8,0-.8,0-1.4-.3-1.8-.3-.4-.7-.7-1.1-.8-.8-.2-1.6,0-1.7,0-1.4,0-1.9-.4-2.1-.7-.2-.3,0-.7,0-.7h0s0,0,0,0c.3-2,.2-3.4,0-4.2-.2-.9-.5-1.3-.5-1.3h0s0,0,0,0c-.2-.1-.5-.2-.9-.2-.4,0-.8,0-1.2,0-.8,0-1.5,0-1.5,0h0s0,0,0,0c-.1.1-.3,0-.5,0-.2-.1-.5-.3-.7-.6-.5-.5-.8-1-.8-1h0c0,0-1.2-.3-1.2-.3h0c-3.2,2.7-7.9,1.5-7.9,1.5h0s0,0,0,0c-4.6,0-6,.2-6,.2h0s0,0,0,0c-.5.6-1,.6-1.6.4-.5-.1-.9-.4-.9-.4,0-.1-.2-.2-.4-.3-.2,0-.4-.1-.6-.1-.4,0-.8,0-.8,0h0c-4.5.3-7.4,0-9.1-.3-.8-.2-1.4-.4-1.7-.5-.3-.1-.5-.2-.5-.2h0c0,0-.1,0-.2,0,0,0-.2,0-.3,0-.2,0-.4,0-.6,0-.4,0-.9,0-.9,0h-.2c-.2.5-.7,1.2-.8,1.3,0,0,0,0-.2,0-.1,0-.3,0-.4,0-.3,0-.8,0-1.2,0-.8,0-1.6,0-1.6,0h0s0,0,0,0c-.9,0-1.4.3-1.7.6-.3.3-.4.6-.4.6h0s-.2,4-.2,4h0c.1,1.2,0,1.7-.1,1.9,0,0,0,0,0,0h-.1c0,0,0,0,0,0,0,0-.3.2-.6.3-.3,0-.7,0-1,.1-.7,0-1.4,0-1.4,0h0s0,0,0,0c-.6,0-1,.3-1.3.7-.3.4-.5.8-.6,1.3-.2.9-.2,1.7-.2,1.7h0c.1.6.4,1,.8,1.2.4.3.9.4,1.3.4.9.1,1.7,0,1.7,0h0c1.1.1,1.5.4,1.6.7.1.3,0,.5,0,.5h0c0,.5,0,3.9.1,7.2,0,3.3.1,6.5.1,6.5,0,.4-.2.7-.3.9-.1.2-.3.2-.5.3-.3,0-.7,0-.7,0h0s0,0,0,0c-2.3,0-3.4.8-3.8,1.6-.4.8-.3,1.6-.3,1.7.1,1.5,1.1,2.2,2,2.5.9.3,1.8.2,1.8.2h0c1.1,0,1.6.3,1.8.6.2.3.1.5.1.5h0c0,0,0,.1,0,.1,0,0,0,.1,0,.3,0,.2,0,.4,0,.6,0,.5,0,1.1,0,1.7,0,1.2-.2,2.3-.2,2.3h0s0,0,0,0c.2,1.2.9,1.7,1.5,1.8.6.1,1,0,1.1,0h0l16.5.4c2.4,1.7,3.9,1.8,4.8,1.3ZM61.7,31s-.2-1.4-.6-1.9c0,0,0-1.1.9-1.2h0c.2,0,.5,0,.8.1,0,0,1.4,0,1,2.3v3.5s-.2,1.4,2.3,1c0,0,2.7.4,2.7,1.5,0,0,.8,2.1-2.3,1.9h-2.3s-1,.6-.6,1.9l-.2,14.3s-.2,2.5,2.1,2.3c0,0,2.5,0,2.9.6,0,0,1.7,2.5-2.1,2.3,0,0-2.3,0-2.7.2,0,0-.4.4-.6,5.2,0,0,.2,2.7-1.9,2.5,0,0-13.7.2-14.9,0,0,0-1.2.4-1.4-.8,0,0,0-.8,1.4-.8h13.7s1.2.6,1.2-1.7c0,0,.4-10.8.6-22.6,0-3.5.2-7.2,0-10.6ZM58.2,29.1c.3-.5.6-.7.9-.7h0c1.1-.2,1.8,3,1.8,3l-.4,29.6c0,1-.2,1.7-.2,1.7-1.2.2-2.1-2.5-2.1-2.5v-31ZM59.3,64.3s0,.8-1.9.4h-11.6c.2,0-2.9.8-2.7-1,0,0,.8-1,1.5-1,0,0,9.7.8,11.4-.2,0,0,.8-.1,1.4,0h0c.2,0,.4,0,.5,0,0,0,1.4,1.2,1.4,1.9ZM42.1,57l.2-12.4c0-.4.2-15.3.2-15.3.2-1.4,3.7-1.4,3.9-1.4,9.3.4,9.1-.4,9.1-.4.7-.3,1.1-.4,1.4-.4h0c.5,0,.5.4.5.4.2.4-.2,4.3-.2,4.3.2.4-.2,27.9-.2,27.9-.2,1.4-1.2,1-1.2,1-1.4,1-7.7.4-7.7.4-2.1-.4-5.2.4-5.2.4-.4.6-1-.2-1-.2l.2-4.3ZM41.9,64.7c0,0,.1,0,.2,0h0c.8,0,1.7,2.1,1.7,2.1,0,1.9-1.7,2.3-1.7,2.3-1.9,0-2.1-1.9-2.1-1.9,0-2.5,1.9-2.5,1.9-2.5ZM27.2,27.9c-.2-.8,1-.8,1-.8l2.7.6c.6.6,8.1,0,8.1,0,1.9,0,1.9,2.3,1.9,2.3.4,5.4-.4,30.8-.4,30.8,0,1.4-1.2.2-1.2.2h-6.6c-.6.2-3.5,0-3.5,0-2.3-.2-2.3-1.7-2.3-1.7l.4-31.5ZM26.6,61.8h0c.3,0,.4,0,.4,0h0c.2,0,.7.3,1.3.4.5.1.9.2,1,.2h9.8c.7.4,1.1.8,1.3,1.2,0,.2.1.4,0,.5,0,.2-.1.3-.2.4-.2.2-.5.3-.7.4-.2,0-.4.1-.4.1h0s-2.7-.6-2.7-.6h-10.1c-.4,0-.6,0-.9,0-.2-.1-.3-.3-.4-.5,0-.4,0-.8,0-.8h0s0,0,0,0c.4-.9.9-1.2,1.4-1.3.1,0,.2,0,.3,0ZM25.7,28.7s.2,2.1.2,2.5-.2,28.4-.2,28.4c0,0,.2,2.1-1.7,3.3,0,0-.4.2-.6-1.2l.2-29.4s.2-3.5,2.1-3.5ZM37.7,67.6h-15.3c-2.1-.2-1.9-1.7-1.9-1.7v-3.7c.2-1.9-1.9-2.3-1.9-2.3-2.9.4-3.5-1.2-3.5-1.2,0-2.1,3.3-1.9,3.3-1.9,2.7,0,1.9-2.5,1.9-2.5l.2-14.9c-.2-1.4-3.7-1.5-3.7-1.5-2.3.2-1.7-1.9-1.7-1.9,1.2-1,3.5-1,3.5-1,2.1.2,2.1-2.1,2.1-2.1l.2-4.1c.9-.8,1.4-1,1.9-1h0c.7,0,.8.6.8.6-1.1,1.8-1.1,5.4-1,6.4,0,0,0,0,0,0,0,0,0,.3,0,.3,0,0,0,.1,0,.1,0,0,0,0,0,0,0,1.2-.2,27.8-.2,27.8.2,3.1,2.3,2.5,2.3,2.5l12.6.4c1.2,0,1.2.8,1.2.8,0,.8-.8.8-.8.8ZM104.3,114.3h0c-.5-.9-1.5-1.3-2.4-1.5-.9-.2-1.7-.1-1.7-.1h0c-1,0-1.4-.2-1.5-.5-.2-.3-.1-.6-.1-.6h0s.2-12.8.2-12.8c0-.5.2-.9.4-1.2.2-.3.3-.5.3-.5.6.2,2.7-.4,2.7-.4,1.2-.1,1.7-.8,1.9-1.5,0,0,0,0,0-.1.3-.6.3-1.1.3-1.1.1-.8-.5-1.5-1-1.9-.6-.5-1.2-.7-1.2-.7h0s-2.9,0-2.9,0c0,0-.1,0-.2-.1,0,0-.1-.2-.2-.4,0-.3-.1-.8-.2-1.2,0-.9,0-1.8,0-1.8h0v-1.7c0-.8-.6-1.4-1.1-1.7-.5-.4-1.1-.5-1.1-.5h0s-3.7,0-3.7,0c0-.1-.2-.3-.3-.4-.2-.1-.4-.2-.6-.3-.4-.1-.8-.2-.8-.2-.7-.2-1.7-.2-1.7-.2h0c-1.3.9-3.5,1.3-5.5,1.4-1.9.1-3.5,0-3.5,0l-6.5-.4h0s0,0,0,0c0,0-.2,0-.3,0-.2,0-.5,0-.8.1-.5,0-1.1.1-1.1.1h-.1s0,.1,0,.1c-.2.5-.7.7-.7.7l-.6.2c-.4-.3-1-.6-1.5-.7-.6-.2-1.1-.3-1.1-.3,0,0,0,0,0,0,0,0,0,0,0,0,0,0,0,0-.1,0,0,0-.2,0-.3,0-.3,0-.6,0-1.1,0-.9,0-2,0-3.1.1-2.3.1-4.5.3-4.5.3-2.6.1-4.3-.3-5.4-.7-1.1-.4-1.5-.9-1.5-.9-.3-.4-.6-.6-.9-.6h0c-.3,0-.6.1-.8.3-.4.4-.7.9-.7.9-.5.6-1.4.8-2.3.8s-1.6-.2-1.6-.2h0s0,0,0,0c-1.3.4-1.8,1-2.1,1.4-.1.2-.1.4-.1.6s0,.2,0,.2v4.7c0,.3-.2.4-.3.5-.2.1-.4.2-.6.2-.5,0-.9,0-.9,0h0c-1.6-.3-2.7,0-3.4.5-.7.5-.9,1-.9,1-.7.9-.2,2.2-.2,2.2h0c0,.1,0,.2.2.3,0,0,0,0,0,0,.6,1.7,2.9,1.7,2.9,1.7.8.6,2.3.2,2.3.2.4,0,.7.2.8.4,0,.3,0,.6,0,.6h0s0,0,0,0c0,0,0,.3,0,.7,0,.4,0,.9,0,1.5,0,1.2,0,2.7,0,4.2,0,3,0,5.9,0,5.9,0,1-.2,1.6-.2,1.6h0c0,.1,0,.1,0,.2,0,0-.2,0-.3.1-.3,0-.6,0-1,0-.8,0-1.5-.1-1.5-.1h0s0,0,0,0c-2.2.2-2.8,2.2-2.8,2.2h0c-.2.4-.2.8,0,1.2,0,.2.1.4.2.5.4.9,1.4,1.7,1.4,1.7,0,.4,3.9.6,3.9.6.2,0,.4.2.5.4,0,0,0,0,0,.1,0,.4,0,.7,0,.7,0,.1,0,.2,0,.4,0,.2,0,.4,0,.7,0,.6,0,1.2,0,1.9,0,1.3.2,2.6.2,2.6h0c0,.1,0,.3.2.4,0,0,0,0,0,0,.2,1.2,4.1.8,4.1.8,0,0,13.8-.3,17.5-.3.5,0,.9,0,.9,0,.4,0,1.5-.2,1.5-.2l1.4,1c.6.5,1.2.6,1.7.5.1,0,.2,0,.3,0,1.1-.2,1.9-.9,1.9-.9l2.1-.4c.4,0,17.2-.2,17.2-.2,1.4.4,2.1-.2,2.1-.2l2.7-.2c.1,0,.2,0,.3,0,.7-.1,1-.6,1.2-1.2,0-.1.1-.2.1-.3.2-.6.2-1.2.2-1.2v-3.5c0-.3,0-.5.2-.7.4-.7.9-.8.9-.8l2.5-.4,1.2-.6c.5-.1.7-.5.9-.9,0,0,0-.1.1-.2.2-.4.2-.8.2-1.2,0-.8-.2-1.5-.2-1.5h0ZM98.7,91.4s0,0,0,.1c.1.1.2.2.4.3h0s2.9,0,2.9,0c0,0,.5.2,1.1.7.4.3.7.7.8,1.1-.4-.6-1.1-1.1-1.5-1.3-.2-.1-.4-.2-.4-.2h-2.9c-.3,0-.4-.3-.5-.7h0ZM97.5,84.8c-.1,0-.2-.1-.3-.2,0,0,.2,0,.2.1,0,0,0,0,0,0ZM92.8,84.3h3.7s.3.1.7.3c-.3-.2-.6-.3-.6-.3h-3.7s0,0,0,0h0ZM93,86.6l1.2,2.1c-.2,1.4,0,2.5,0,2.5l-.2,28.4c.2,2.3-.8,1-.8,1-.4-.2-1.7-2.5-1.7-2.5l.2-.8v-30c0-1.7,1.2-.6,1.2-.6ZM71.7,84.7s.5,0,1-.1c.3,0,.6,0,.8-.1.1,0,.2,0,.3,0,0,0,0,0,.1,0l6.4.4s1.6.1,3.6,0c1.9-.1,4.2-.5,5.6-1.4,0,0,1,0,1.6.2h0s0,0,0,0c0,0,.4,0,.7.2.2,0,.4.1.5.2,0,0,0,0,0,0-.5-.3-1.3-.4-1.3-.4-.6-.2-1.7-.2-1.7-.2-2.7,1.9-9.1,1.5-9.1,1.5l-6.4-.4c-.2.2-2.2.4-2.3.4,0,0,0,0,0,0ZM73.1,86s2.5-.2,2.9,0c.4.2,5.8.4,7.2.2,1.4-.2,1.7,1,6.2-1.2,0,0,1.2,0,1.2.8,0,0-.4,8.3,0,9.9,0,0,0,15.3-.4,16.4l.2,5s.2,2.1-3.3,2.3c0,0,2.1.2-11.4-.2,0,0-2.1-.2-4.6,1,0,0-.4-.2-.4-1.4,0,0,.4-4.6,0-9.1l-.2-5h-.8s0,2.3-.2,4.6c-.2,1.2.4,7,0,9.9,0,0,0,1-2.1.2,0,0-12.6.2-12.8-.2,0,0-3.5.2-3.7-1.7,0,0,.4-13.5.2-13.9,0,0-.2-7.2,0-8.1,0,0,.2-6.8,0-7.7,0,0,0-1.7-.2-2.3,0,0,0-1,1.7-.4,0,0,.6,1,3.7.6,0,0,2.3.4,4.6,0,0,0,5-.4,6.2,0,0,0,2.1-.4,2.5,1.9v6l.6,2.1.6-.4.2-1.4v-6.4s.4-1.2,2.1-1.4ZM43.4,86c.2-.4.7-.8,1.8-1.2,0,0,.8.2,1.6.2.9,0,2-.1,2.6-.9h0s0,0,0,0c0,0,.3-.5.6-.8s.4-.2.5-.2h0c.2,0,.4.1.6.4h0s0,0,0,0c0,0,.5.5,1.6.9,1.1.4,2.9.9,5.5.8h0s2.2-.2,4.5-.3c1.1,0,2.3-.1,3.1-.1.4,0,.8,0,1.1,0,.1,0,.2,0,.3,0,0,0,0,0,0,0h0s0,0,0,0c0,0,.5.1,1.1.3.6.2,1.3.5,1.5.7h0c0,0,.7-.2.7-.2,0,0,.4-.3.7-.7-.2.6-.8.8-.8.8l-.6.4c-.6-.6-2.7-1-2.7-1-.2-.2-9.1.4-9.1.4-5.2.2-7-1.7-7-1.7-1-1.4-2.1.6-2.1.6-1,1.4-4.1.6-4.1.6-1.1.4-1.7.8-1.9,1.2,0,0,0-.2,0-.2ZM48.1,120.8s-.8,1-.8-.6l.4-30.2s0-2.3,1.4-3.3c0,0,.6,0,.6,1.2l-.2,29.6s.2,1.9-1.4,3.3ZM36.9,94.1s0,0,0,.1c0-.2.1-.3.2-.4h0s.2-.5.8-.9c.6-.4,1.6-.8,3.1-.5,0,0,.5.1,1,0s.5,0,.8-.3c0,0,.1-.1.2-.2h0c-.5,1-2,.6-2,.6-3.1-.6-4.1,1.5-4.1,1.5ZM37.1,115.7s.6-1.8,2.5-2c0,0,.8.1,1.5.1s.8,0,1.1-.1c.2,0,.3,0,.4-.2,0,0,0,0,0,0h0s0,0,0,0c0,.1,0,.2-.1.3,0,0-.2.1-.4.2-.9.2-2.6,0-2.6,0-1.5.1-2.2,1.2-2.5,1.7ZM67.5,124.9s0,.6-1,.4c0,0-8.1.8-15.5.4,0,0-5,.2-5.2-.2,0,0-.8-.2-.8-2.9,0,0,0-2.7-.2-3.1,0,0,.2-1.4-2.3-1.7,0,0-3.5.6-3.5-1.4,0,0,.4-1.4,3.9-1.2,0,0,2.5.4,1.9-1.7l.2-14.5s.4-2.5-1.4-2.7h-2.1s-2.9,0-2.7-1.7c0,0,1-1.7,3.9-1.4,0,0,2.1.4,2.3-2.1,0,0,0-4.9,1-5.2,0,0,0,0,0,0,0,0,0,0,0,0,.1,0,2.2.2,1.5.8h0s-1.2,2.1-1,2.7v32.7s-.2,2.3,1.7,1.7c0,0,17.2-.4,18.4,0,0,0,1.7.2,1,1ZM66.7,122.7l-16.1-.2-1.9.2s-1.2-.2.6-2.5l1-.8s1.4,1.4,3.7,1.4l13.2.2s1.4.2,1.4.8c0,0-.2,1.2-2.1.8ZM71.3,126.8c-1,.2-2.1-.2-2.3-1.4-.4-1.2,0-2.7,1.4-3.1h0,0,0s1.7.2,1.7,1.9,0,2.5-.8,2.7ZM72.3,121.4h0s1.7-1.2,2.5-1c0,0,8.9.6,11.6.2.7-.1,1.2-.2,1.4-.2-.2,0-.3,0-.3,0,0,0,.9-.1.3,0,.7,0,2.1-.2,2.8-.8,0,0,.6-.2,1,.4l1.4,1.7s0,1-1.7.8c0,0-15.9,0-16.6.2.2,0-2.7.4-2.5-1.2ZM101.3,117.1s-4.1-.2-3.7,1c0,0-.2,2.7-.4,3.3,0,0,.4,2.3,0,2.7,0,0-.2,1.2-2.9,1,0,0-16.8,0-19.5.2-.2.4-1.9.2-1.4-1.2h0s1.2-.6,2.1-.4c.8.2,12.2-.2,12.2-.2,0,0,5,.4,5.8-.4l1.2-.4s.4-.6.4-1.4v-3.5l.2-1v-27.1s.4-2.1-.8-3.3c0,0,0-.8.4-.6.4.2.2,0,.2,0,0,0,1.7-.4,2.1.2,0,0,.8,2.3,0,3.7,0,0-.2,2.9,1.2,2.9,0,0,.6.6,1.7.2,0,0,2.5.2,2.5,1,0,0,0,1.9-1.7,1.4l-2.3.2s-1.7.4-1.4,2.1c.2,1.9,0,15.3,0,15.3,0,0,0,1.7,2.5,1.4,0,0,3.1-.2,3.1.8,0,0,.8,1.9-1.4,2.1ZM100.3,113.3c-1.4.1-1.7-.4-1.8-.8h0c.3.4.8.7,1.8.6,0,0,.8,0,1.6.1.9.2,1.8.5,2.1,1.2,0,0,0,.1,0,.1-1-1.4-3.8-1.2-3.8-1.2ZM128.6,58.3h0c-.1-1.5-1-2.3-1.8-2.6-.8-.3-1.7-.3-1.7-.3h0c-1.2,0-1.7-.4-1.9-.8s-.2-.7-.2-.7h0c0-1.2.2-12.4.2-12.4h0c0-.3.1-.7.3-1,.1-.3.2-.5.3-.5,1.3.1,2.2,0,2.9-.2.7-.3,1.2-.7,1.4-1.1.5-.9.3-1.8.3-1.8,0-.8,0-1.4-.3-1.8-.3-.4-.7-.7-1.1-.8-.8-.2-1.6,0-1.7,0-1.4,0-1.9-.4-2.1-.7-.2-.3,0-.7,0-.7h0c.3-2,.2-3.4,0-4.3s-.5-1.3-.5-1.3h0s0,0,0,0c-.2-.1-.5-.2-.9-.2-.4,0-.8,0-1.2,0-.8,0-1.5,0-1.5,0h0s0,0,0,0c-.1.1-.3,0-.5,0-.2-.1-.5-.3-.7-.6-.5-.5-.8-1-.8-1h0c0,0-1.2-.3-1.2-.3h0c-3.2,2.7-7.9,1.5-7.9,1.5h0s0,0,0,0c-4.4,0-5.8.2-5.8.2h0s0,0,0,0c-.5.6-1,.6-1.6.4-.5-.1-.9-.4-.9-.4,0-.1-.2-.2-.4-.3-.2,0-.4-.1-.6-.1-.4,0-.8,0-.8,0h0c-4.5.3-7.4,0-9.1-.3-.8-.2-1.4-.4-1.7-.5-.3-.1-.5-.2-.5-.2h0c0,0-.1,0-.2,0,0,0-.2,0-.3,0-.2,0-.4,0-.7,0-.4,0-.9,0-.9,0h-.2c-.2.5-.7,1.2-.8,1.3,0,0,0,0-.2,0-.1,0-.3,0-.4,0-.3,0-.8,0-1.2,0-.8,0-1.6,0-1.6,0h0s0,0,0,0c-1,0-1.5.3-1.8.6s-.4.6-.4.6v4.2c.1,1.1,0,1.6-.1,1.7,0,0,0,0,0,0,0,0,0,0,0,0h-.1c0,0,0,0,0,0,0,0-.3.2-.6.3s-.7,0-1,.1c-.7,0-1.4,0-1.4,0h0s0,0,0,0c-.6,0-1.1.3-1.4.7-.3.4-.5.8-.6,1.3-.2.9-.2,1.7-.2,1.7h0s0,0,0,0c.1.6.4,1,.8,1.2.4.3.9.4,1.3.4.9.1,1.7,0,1.7,0h0c1.1.1,1.5.4,1.6.7.1.3,0,.5,0,.5h0c0,.2,0,.4,0,.9,0,.4,0,1,0,1.7,0,1.3,0,3,0,4.7,0,3.3,0,6.5,0,6.5,0,.4-.2.7-.3.9-.1.2-.3.2-.5.3-.3,0-.6,0-.6,0h0s0,0,0,0c-2.3,0-3.4.8-3.8,1.6-.4.8-.3,1.6-.3,1.7.1,1.5,1.1,2.2,2,2.5.9.3,1.8.2,1.8.2h0c1,0,1.5.3,1.7.6.2.3.2.5.2.5h0s0,0,0,0c0,0,0,.1,0,.3,0,.2,0,.4,0,.6,0,.5,0,1.1,0,1.7,0,1.2-.2,2.3-.2,2.3h0s0,0,0,0c.2,1.2.9,1.7,1.5,1.8.6.1,1,0,1.1,0h0l16.5.4c2.4,1.7,3.9,1.8,4.8,1.3.9-.5,1.2-1.3,1.2-1.4h0c0-.1.2-.2.3-.2s0,0,0,0c0,0,0,0,0,0v.2c-.1,0,.1,0,.1,0,.2,0,.5,0,1.1,0,.5,0,1.2,0,2,0,1.6,0,3.6,0,5.5,0,2,0,3.9,0,5.4,0,1.5,0,2.5,0,2.6,0,.7.2,1.3.1,1.7,0,.4-.2.7-.4.9-.7.3-.6.3-1.3.3-1.3h0s.2-4.9.2-4.9c0-.3.4-.6.8-.7.4-.1.7-.2.7-.2,2.3.3,3.4-.5,3.9-1.4.5-.9.4-1.9.4-1.9ZM116.6,29.1c.3-.4.6-.6.9-.6h0c1.1,0,1.8,2.9,1.8,2.9l-.4,29.6c0,1-.2,1.7-.2,1.7-1.2.2-2.1-2.5-2.1-2.5v-31ZM100.7,57.3l.2-12.4c0-.4.2-15.3.2-15.3,0-1.7,3.7-1.4,3.9-1.4,9.3.4,9.1-.4,9.1-.4.5-.3.9-.4,1.1-.4h0c.5,0,.5.4.5.4.2.4-.2,4.4-.2,4.4.2.4-.2,27.9-.2,27.9-.2,1.4-1.2,1-1.2,1-1.4,1-7.7.4-7.7.4-2.1-.4-5.2.4-5.2.4-.4.6-1-.2-1-.2l.4-4.3ZM85.6,27.9c-.2-.8,1-.8,1-.8l2.7.4c.6.6,8.1,0,8.1,0,1.9,0,1.9,2.3,1.9,2.3.4,5.4-.4,30.8-.4,30.8,0,1.7-1.2.4-1.2.4h-6.6c-.6.2-3.5,0-3.5,0-2.3-.2-2.3-1.7-2.3-1.7l.4-31.5ZM82,32.2s.2-3.5,2.1-3.5c0,0,.2,2.1.2,2.5s-.2,28.4-.2,28.4c0,0,.2,2.1-1.7,3.3,0,0-.4.2-.6-1.2l.2-29.4ZM95.9,67.4h-15.3c-1.9-.2-1.7-1.7-1.7-1.7v-3.7c0-1.9-2.1-2.3-2.1-2.3-2.9.4-3.5-1.2-3.5-1.2,0-2.1,3.3-1.9,3.3-1.9,2.9,0,2.1-2.5,2.1-2.5l.2-14.9c-.2-1.4-3.7-1.5-3.7-1.5-2.3.2-1.7-1.9-1.7-1.9,1.2-1,3.5-1,3.5-1,2.1.2,2.1-2.1,2.1-2.1v-3.9c.9-.8,1.4-1,1.9-1h0c.7,0,.8.6.8.6-1.2,2.1-1,6.8-1,6.8v-.4c.2.4,0,28.2,0,28.2.2,3.1,2.3,2.5,2.3,2.5l12.4.2c1.2,0,1.2.8,1.2.8,0,.8-.8.8-.8.8ZM97.6,64.7l-2.7-.6h-10.1c-1.4.4-1-1-1-1,.6-1.1,1.2-1.3,1.6-1.3h0c.2,0,.3,0,.3,0,.4.2,2.3.6,2.3.6h9.7c2.9,1.7,0,2.3,0,2.3ZM100.9,68.8c-1.9,0-2.1-1.9-2.1-1.9-.2-2.5,1.7-2.5,1.7-2.5,0,0,.1,0,.2,0h0c.8,0,1.9,2.1,1.9,2.1,0,2.1-1.7,2.3-1.7,2.3ZM101.9,63.5s.8-1,1.5-1c0,0,9.7.8,11.4-.2,0,0,.6,0,1.1,0h0c.3,0,.6,0,.8,0,0,0,1.5,1.2,1.5,1.9,0,0,0,.8-1.9.4h-11.6s-3.1.8-2.7-1ZM124.9,59.3s-2.3,0-2.7.2c0,0-.4.4-.6,5.2,0,0,.2,2.7-1.9,2.5,0,0-13.7.2-14.9,0,0,.2-1.5.6-1.7-.6,0,0,0-.8,1.5-.8h13.7s1.2.6,1.2-1.7c0,0,.4-10.8.6-22.6,0-3.5.2-7.2,0-10.6,0,0-.4-1.4-.6-1.9,0,0,0-1.1.9-1.2h0c.2,0,.5,0,.8.1,0,0,1.4,0,1,2.3v3.3s-.2,1.4,2.3,1c0,0,2.7.4,2.7,1.5,0,0,.8,2.1-2.3,1.9h-2.3s-1,.6-.6,1.9l-.2,14.3s-.2,2.5,2.1,2.3c0,0,2.5,0,2.9.6,0,0,1.7,2.5-1.9,2.3Z"/>
      <path class="cls-2" d="M39.6,38.4l-.8,1.9s-2.1,9.5-3.3,11.4c0,0-.2,2.1-1.9.4,0,0-3.9-12-4.1-12.4l-1.2-.8s-.8-1,.6-1.2h3.7s1.2,1-.4,2.1c0,0,.2,1.7,2.3,7.7,0,0,.6,2.3,1.2.6l2.1-7-.6-2.1s-.6-1,.2-1c0,0,2.1-.2,2.3.6M45.2,40.1v10.3l-.2.8s-1,1.2-.2,1.4c0,0-.8.6,6.2.6,0,0,2.7.4,2.1-3.1,0,0-.2-1.2-1.2.6,0,0-.2,1.7-3.9,1,0,0-.8-.6-.8-1.4v-4.3s0-1,1.7-1c0,0,1.9,1.2,2.1.6,0,0,.6-1.7,0-2.5,0,0-.8,0-1,.2,0,0-.6,1.2-2.3.4,0,0-.8-1.7-.2-2.9,0,0-.2-2.5,1.4-2.3,0,0,2.1.4,2.1,1,0,0,.4,1.2,1-.2l-.4-1.4s-.2-.6-.8-.4c0,0-3.3.4-3.7,0l-2.7.2s-.4,1,.8,1.4c0,.2.2.4.2.8M104.6,38.4c-.2-.8,1.7-.8,1.7-.8l1,.2c.6,0,1.4.2,1.4.2.6,1-.4,1.7-.4,1.7l-.4,1.2v10.3c.2.4,1,1.4,1,1.4,0,.8-1,.6-1,.6h-2.9c-.8,0-.6-1-.6-1,1-.4,1.2-2.3,1.2-2.3v-9.7l-1-1.9ZM91.3,47.5l-.2,3.1.8,1.4c.6.8-.4,1.4-.4,1.4l-3.1-.4c-.6-.2,0-1.2,0-1.2.8-.4.8-1.7.8-1.7v-9.9c0-.4-.8-1.4-.8-1.4-.6,0-.4-1-.4-1,.2-.4,1.9-.2,1.9-.2h4.1c3.9,1.2,3.3,4.1,3.3,4.1.2,2.9-2.7,3.9-2.7,3.9l-.2,1.7,2.9,4.6c.4.4.4.8.4.8-.4,1-2.1,0-2.1,0l-3.5-5.6c-.4-.4-.8.4-.8.4M91.3,39.7v5.2c1.9,1.4,2.9-.6,2.9-.6,2.5-2.3,0-4.6-.4-5.2-.4-.6-2.3,0-2.3,0l-.2.6ZM61.1,97.6s.2,7.2,0,8.3v1.7s.4,1,1,1.4c0,0,.4,1.4-.6,1.2,0,0-2.5-.2-3.1,0,0,0-1.4,0,0-1.7,0,0,.4-.6.4-2.5,0,0,0-8.3.2-8.7,0,0,.2-1-.4-1.4h-1.2l-1.4,1.4s-.4,1.4-1,0v-.8l.8-2.3h.6s.8.6,1.7.8h4.6l1.7-.8s.6,0,.4,1c0,0,.2,2.3-1,2.5,0,0-.8-.2-1.2-1.4,0-.2-1.2-1-1.2,1.2M82.7,94.9s-3.7-.4-3.7,3.7c0,0-.4,2.7,3.7,4.6,0,0,3.1,1.4,2.9,3.3,0,0-.4,3.3-3.7,1.7,0,0-1.7-.8-1.4-1.7,0,0-.4-1-1-.8,0,0-.6.2-.4,3.5,0,0,0,1.2,1.4,0l.8.2s2.7,2.1,5-.4c0,0,2.5-2.3.6-5,0,0-1.2-2.1-3.5-2.9,0,0-2.1-1-2.7-2.7,0,0,.6-2.9,3.3-1.4,0,0,1,1.2,1.7,1.4,0,0,.8,0,.6-1.9l-.2-1.4s-.2-1-1.7,0c0-.2-1.2.4-1.7-.2M70.9,92.9c.6.4.8,1.4.8,1.4,2.1,5.2,3.7,12.8,3.7,12.8.4,1,1.4,1.7,1.4,1.7,1.7.6,0,1,0,1-.6.2-2.9,0-2.9,0-1.2-.2-.6-.6-.6-.6.4-.4,0-2.5,0-2.5,0-.8-1-2.1-1-2.1-.4-.2-1,.6-1,.6,0,0-1,.4-1.2,0s-.8-.8-.8-.8c-1.2,0-1.7,2.9-1.7,2.9.6,2.5,0,2.1,0,2.1-.6.8-2.5.2-2.5.2-.8-.2-.2-.8-.2-.8,1-.2,1.4-1.4,1.4-1.4.4-.6,3.7-13.5,3.7-13.5-.2-.2,0-1.4.8-1M69.2,99.5c0,.4-.8,3.3-.8,3.3l.6,1h2.1c.4,0,.6-.4.6-1s-1-3.5-1-3.5l-.4-.6-1,.8Z"/>
    </g>
  </g>
</svg>